<svg width="200.000000" height="200.000000" viewBox="0 0 200 200" fill="none" xmlns="http://www.w3.org/2000/svg" xmlns:xlink="http://www.w3.org/1999/xlink">
	<desc>
			Created with Pixso.
	</desc>
	<defs>
		<filter id="filter_12_2_dd" x="-0.421387" y="5.235962" width="190.932129" height="190.932129" filterUnits="userSpaceOnUse" color-interpolation-filters="sRGB">
			<feFlood flood-opacity="0" result="BackgroundImageFix"/>
			<feColorMatrix in="SourceAlpha" type="matrix" values="0 0 0 0 0 0 0 0 0 0 0 0 0 0 0 0 0 0 127 0" result="hardAlpha"/>
			<feOffset dx="-8" dy="-8"/>
			<feGaussianBlur stdDeviation="0"/>
			<feComposite in2="hardAlpha" operator="out" k2="-1" k3="1"/>
			<feColorMatrix type="matrix" values="0 0 0 0 0.76863 0 0 0 0 0.76863 0 0 0 0 0.76863 0 0 0 1 0"/>
			<feBlend mode="normal" in2="BackgroundImageFix" result="effect_dropShadow_1"/>
			<feBlend mode="normal" in="SourceGraphic" in2="effect_dropShadow_1" result="shape"/>
		</filter>
		<clipPath id="clip10_1">
			<rect id="1xxx" width="200.000000" height="200.000000" fill="white"/>
		</clipPath>
	</defs>
	<g clip-path="url(#clip10_1)">
		<path id="path" d="M89.4666 120L89.4666 90L110.533 90L110.533 120L163.227 120C169.047 120 173.76 124.48 173.76 130L173.76 190C173.76 195.52 169.047 200 163.227 200L36.7734 200C30.9534 200 26.24 195.52 26.24 190L26.24 130C26.24 124.48 30.9534 120 36.7734 120L89.4666 120ZM0 68.3667C13.96 28.64 53.4666 0 100 0C146.533 0 186.047 28.64 200 68.3667L180 74.6866C168.52 42.02 136.293 19.98 100 19.98C63.7065 19.98 31.48 42.0133 20 74.6866L0 68.3667ZM40 81.02C48.6201 56.52 72.7866 40 100 40C127.213 40 151.38 56.52 160 81.02L140 87.3533C134.253 71.0133 118.147 60 100 60C81.8533 60 65.7466 71.0133 60 87.34L40 81.02ZM47.3132 140L47.3132 180L152.687 180L152.687 140L47.3132 140Z" fill-rule="nonzero" fill="#707070"/>
		<g filter="url(#filter_12_2_dd)">
			<rect id="2xxx" x="178.777588" y="13.235962" width="16.593262" height="242.111816" transform="rotate(45 178.777588 13.235962)" fill="#707070"/>
		</g>
	</g>
</svg>
