<?xml version="1.0" standalone="no"?><!DOCTYPE svg PUBLIC "-//W3C//DTD SVG 1.1//EN" "http://www.w3.org/Graphics/SVG/1.1/DTD/svg11.dtd"><svg t="1700560816807" class="icon" viewBox="0 0 1024 1024" version="1.1" xmlns="http://www.w3.org/2000/svg" p-id="4600" xmlns:xlink="http://www.w3.org/1999/xlink" width="200" height="200"><path d="M458.069333 614.4v-153.6h107.861334V614.4h269.789866c29.7984 0 53.930667 22.9376 53.930667 51.2v307.2c0 28.2624-24.132267 51.2-53.930667 51.2H188.279467c-29.7984 0-53.930667-22.9376-53.930667-51.2v-307.2c0-28.2624 24.132267-51.2 53.930667-51.2h269.755733zM0 350.037333C71.4752 146.6368 273.749333 0 512 0s440.558933 146.6368 512 350.037333l-102.4 32.3584c-58.7776-167.253333-223.778133-280.098133-409.6-280.098133S161.1776 215.108267 102.4 382.395733l-102.331733-32.3584H0z m204.8 64.785067C248.9344 289.3824 372.667733 204.8 512 204.8s263.0656 84.5824 307.2 210.0224l-102.4 32.426667C687.377067 363.588267 604.910933 307.2 512 307.2s-175.377067 56.388267-204.8 139.9808l-102.4-32.392533zM242.244267 716.8v204.8h539.511466v-204.8H242.244267z" fill="#173757" p-id="4601"></path></svg>